<?xml version="1.0" standalone="no"?>
<!DOCTYPE svg PUBLIC "-//W3C//DTD SVG 20010904//EN"
 "http://www.w3.org/TR/2001/REC-SVG-20010904/DTD/svg10.dtd">
<svg version="1.0" xmlns="http://www.w3.org/2000/svg"
 width="700.000000pt" height="700.000000pt" viewBox="0 0 700.000000 700.000000"
 preserveAspectRatio="xMidYMid meet">
<metadata>
Created by potrace 1.14, written by Peter Selinger 2001-2017
</metadata>
<g transform="translate(0.000000,700.000000) scale(0.100000,-0.100000)"
fill="#000000" stroke="none">
<path d="M3415 6763 c-66 -27 -98 -70 -205 -283 -56 -113 -187 -371 -290 -575
-103 -203 -274 -543 -380 -755 -107 -212 -195 -386 -196 -388 -1 -2 -19 -5
-40 -8 -22 -2 -97 -13 -169 -24 -71 -11 -150 -22 -175 -25 -25 -4 -54 -8 -65
-9 -11 -2 -47 -7 -80 -11 -33 -4 -79 -11 -102 -16 -24 -5 -46 -8 -50 -7 -5 1
-30 -2 -58 -6 -69 -11 -470 -68 -570 -82 -53 -7 -234 -34 -265 -39 -14 -2 -47
-6 -75 -10 -27 -3 -61 -7 -75 -9 -52 -9 -220 -34 -285 -42 -167 -20 -212 -35
-263 -85 -49 -48 -67 -95 -66 -174 1 -112 -9 -101 364 -455 83 -80 173 -165
199 -190 387 -370 445 -425 582 -555 405 -384 469 -449 464 -466 -6 -19 -9
-31 -20 -104 -5 -27 -9 -52 -10 -55 -1 -3 -5 -27 -10 -55 -4 -27 -9 -59 -11
-70 -3 -11 -7 -36 -10 -55 -3 -19 -7 -42 -9 -50 -2 -8 -6 -28 -9 -45 -4 -24
-42 -241 -60 -345 -3 -14 -7 -43 -11 -64 -3 -21 -7 -48 -10 -60 -5 -22 -6 -26
-30 -166 -8 -47 -25 -148 -39 -225 -32 -183 -34 -196 -51 -290 -8 -44 -17 -96
-20 -115 -3 -19 -20 -111 -36 -205 -32 -180 -33 -239 -3 -297 40 -80 136 -134
221 -126 51 5 86 21 363 165 96 49 279 143 405 208 127 65 284 146 350 180 66
34 219 113 340 175 121 62 293 151 383 197 l162 84 233 -119 c127 -66 309
-159 402 -207 94 -48 258 -132 365 -188 107 -55 249 -128 315 -162 66 -34 241
-124 389 -200 l270 -137 62 5 c78 6 136 42 179 111 27 44 30 58 29 125 0 62
-17 183 -48 337 -2 12 -7 37 -10 55 -3 19 -10 59 -15 89 -6 30 -21 120 -35
200 -14 80 -28 156 -31 170 -3 14 -7 39 -9 55 -4 26 -18 110 -30 171 -2 12 -7
39 -10 60 -4 22 -11 62 -16 89 -5 28 -12 66 -15 85 -8 53 -17 103 -22 125 -2
11 -6 31 -8 45 -1 14 -10 63 -19 110 -19 105 -56 313 -63 360 -3 19 -11 62
-18 95 l-13 60 87 85 c48 47 172 166 276 265 104 99 234 223 289 276 56 53
122 116 147 140 106 100 366 348 428 408 36 35 126 120 199 189 166 157 187
190 186 292 0 59 -5 83 -23 115 -40 68 -97 110 -163 120 -186 27 -312 45 -353
50 -27 3 -59 8 -71 10 -26 6 -58 10 -204 30 -63 8 -126 17 -140 20 -14 2 -77
11 -140 20 -177 24 -181 25 -245 35 -33 5 -87 12 -120 16 -33 3 -62 8 -65 9
-3 2 -30 6 -60 9 -30 4 -66 9 -80 11 -14 3 -45 7 -70 10 -25 3 -56 7 -70 10
-14 3 -41 7 -60 9 -49 7 -261 36 -285 40 -25 4 -88 14 -140 21 -22 3 -43 9
-47 13 -6 7 -235 458 -748 1478 -230 459 -258 501 -336 523 -54 15 -112 13
-159 -6z m131 -826 c22 -45 158 -314 301 -597 143 -283 307 -607 363 -720 57
-113 113 -218 124 -233 36 -50 96 -77 203 -93 54 -8 109 -17 123 -19 14 -2 45
-7 70 -9 25 -3 54 -7 65 -10 11 -2 47 -7 80 -11 32 -3 62 -8 65 -10 3 -1 32
-6 65 -9 33 -4 71 -9 85 -11 14 -2 41 -6 60 -9 65 -9 265 -37 290 -41 14 -3
77 -12 140 -20 63 -9 126 -18 140 -20 14 -2 43 -6 65 -9 94 -13 402 -58 420
-61 11 -2 27 -4 35 -4 8 -1 -16 -30 -54 -65 -37 -35 -140 -134 -229 -219 -89
-85 -180 -172 -203 -193 -64 -60 -342 -325 -410 -390 -33 -33 -135 -130 -227
-217 -185 -177 -208 -211 -208 -306 0 -31 3 -67 6 -81 3 -14 14 -74 25 -135
21 -122 107 -613 146 -830 14 -77 27 -151 29 -165 7 -46 15 -95 25 -145 5 -27
11 -61 14 -75 2 -14 7 -41 10 -60 3 -19 8 -48 11 -65 3 -16 12 -70 20 -119 16
-90 15 -106 -7 -89 -7 6 -143 77 -303 158 -159 81 -364 186 -455 233 -91 46
-248 127 -350 180 -102 52 -259 133 -349 180 -153 79 -169 85 -226 86 -68 1
-46 11 -565 -257 -334 -172 -496 -255 -715 -367 -121 -62 -266 -137 -322 -166
-57 -30 -105 -54 -109 -54 -3 0 -3 12 0 28 3 15 8 47 11 71 3 24 10 64 15 88
6 24 13 60 16 81 5 35 40 234 48 278 3 12 7 37 10 55 3 19 8 45 10 59 9 48 38
215 43 245 2 17 13 75 23 130 10 55 21 116 24 135 3 19 10 60 16 90 6 30 13
71 15 90 3 19 20 122 39 229 19 107 32 208 29 225 -12 83 -34 108 -418 472
-27 26 -129 122 -225 214 -96 92 -202 193 -235 224 -33 32 -125 119 -203 194
-79 75 -171 163 -205 195 -33 31 -57 57 -51 57 9 0 113 15 184 25 54 9 1068
153 1125 161 28 3 59 8 69 10 11 2 56 8 100 14 141 19 150 21 176 25 14 3 48
7 75 10 66 8 150 49 179 88 13 18 205 393 427 834 222 442 406 803 409 803 3
0 23 -37 46 -83z"/>
</g>
</svg>
